<?xml version="1.0" standalone="no"?><!DOCTYPE svg PUBLIC "-//W3C//DTD SVG 1.1//EN" "http://www.w3.org/Graphics/SVG/1.1/DTD/svg11.dtd"><svg class="icon" width="200px" height="200.00px" viewBox="0 0 1024 1024" version="1.1" xmlns="http://www.w3.org/2000/svg"><path fill="#ffffff" d="M161.7 75.9v871.6c0 6.6 5.4 12 12 12h680.1c6.6 0 12-5.4 12-12V75.9c0-6.6-5.4-12-12-12H173.7c-6.6 0-12 5.4-12 12z m192 69.6V128h314.1c3.3 0 6 2.7 6 6v52c0 3.3-2.7 6-6 6H359.7c-3.3 0-6-2.7-6-6v-40.5z m442.1 750.1H231.7c-3.3 0-6-2.7-6-6V133.9c0-3.3 2.7-6 6-6h58v122c0 3.3 2.7 6 6 6h179c3.3 0 6 2.7 6 6v116.2c0 3.3-2.7 6-6 6h-84c-3.3 0-6 2.7-6 6V570c0 3.3 2.7 6 6 6h82.9c3.3 0 6 2.7 6 6v116c0 3.3 2.7 6 6 6h52c3.3 0 6-2.7 6-6V582c0-3.3 2.7-6 6-6h85.1c3.3 0 6-2.7 6-6V390.2c0-3.3-2.7-6-6-6h-84c-3.3 0-6-2.7-6-6V262c0-3.3 2.7-6 6-6h181c3.3 0 6-2.7 6-6V134c0-3.3 2.7-6 6-6h52c3.3 0 6 2.7 6 6v755.6c0.1 3.3-2.6 6-5.9 6z m-219-441.4V506c0 3.3-2.7 6-6 6h-116c-3.3 0-6-2.7-6-6v-51.8c0-3.3 2.7-6 6-6h116c3.3 0 6 2.7 6 6z" /></svg>