<?xml version="1.0" standalone="no"?><!DOCTYPE svg PUBLIC "-//W3C//DTD SVG 1.1//EN" "http://www.w3.org/Graphics/SVG/1.1/DTD/svg11.dtd"><svg class="icon" width="200px" height="200.00px" viewBox="0 0 1024 1024" version="1.1" xmlns="http://www.w3.org/2000/svg"><path fill="#ffffff" d="M830.597478 917.26848V376.6272l-318.55104-258.23744L193.413478 376.6272v540.64128h144.1792v-292.87424a40.47872 40.47872 0 0 1 40.57088-40.56576h267.76064a40.52992 40.52992 0 0 1 40.57088 40.56576v292.87424h144.1024z m-411.86304 0h186.624v-252.3136h-186.624v252.3136zM1008.942438 416.8704c17.44896 14.11584 20.1216 39.67488 6.00576 57.0368a40.30976 40.30976 0 0 1-31.48288 15.00672c-9.088 0-18.09408-2.9184-25.55904-9.088l-46.16704-37.4016v515.41504a40.58112 40.58112 0 0 1-40.57088 40.56576H152.842598a40.58112 40.58112 0 0 1-40.57088-40.56576V442.4192l-46.16704 37.4016c-17.2032 14.03904-43.008 11.52-57.04192-5.91872-14.11584-17.36192-11.4432-42.92096 6.00576-57.0368l471.5008-382.19776a40.448 40.448 0 0 1 51.03616 0l471.33696 382.19776z m-392.36608 58.3168a40.58112 40.58112 0 0 1-40.56576-40.56576 40.58112 40.58112 0 0 1 40.56576-40.56576h90.22976c22.4768 0 40.57088 18.176 40.57088 40.56576a40.52992 40.52992 0 0 1-40.57088 40.56576h-90.22976z"  /></svg>