<?xml version="1.0" standalone="no"?><!DOCTYPE svg PUBLIC "-//W3C//DTD SVG 1.1//EN" "http://www.w3.org/Graphics/SVG/1.1/DTD/svg11.dtd"><svg class="icon" width="200px" height="200.00px" viewBox="0 0 1024 1024" version="1.1" xmlns="http://www.w3.org/2000/svg"><path fill="#ffffff" d="M886.2848 212.936533l-133.674667-119.245653c-6.19776-5.451093-14.62272-8.523947-23.359147-8.523947L161.518933 85.166933c-18.387627 0-33.299627 13.259947-33.299627 29.618347l0 792.554667c0 16.384853 15.218347 31.327573 33.605973 31.327573l701.640533 0c18.387627 0 32.753493-18.11968 32.753493-34.50368l0-670.109013C896.22016 226.105173 892.62336 218.525013 886.2848 212.936533zM853.330773 896.077653l-682.31936-1.053867 0.44544-767.061333 511.429973-0.205653 0 112.648533c0 9.79712 6.591147 15.121067 17.66144 15.121067l152.242347 0.205653L853.330773 896.077653zM725.126827 383.295147l-425.813333 0c-0.234667 0-0.426667-0.192-0.426667-0.426667l0-41.736533c0-0.234667 0.192-0.426667 0.426667-0.426667l425.813333 0c0.234667 0 0.426667 0.192 0.426667 0.426667l0 41.736533C725.553493 383.104 725.361493 383.295147 725.126827 383.295147zM725.126827 511.064747l-425.813333 0c-0.234667 0-0.426667-0.192-0.426667-0.426667l0-41.736533c0-0.234667 0.192-0.426667 0.426667-0.426667l425.813333 0c0.234667 0 0.426667 0.192 0.426667 0.426667l0 41.736533C725.553493 510.872747 725.361493 511.064747 725.126827 511.064747zM725.126827 638.834347l-425.813333 0c-0.234667 0-0.426667-0.192-0.426667-0.426667l0-41.736533c0-0.234667 0.192-0.426667 0.426667-0.426667l425.813333 0c0.234667 0 0.426667 0.192 0.426667 0.426667l0 41.736533C725.553493 638.642347 725.361493 638.834347 725.126827 638.834347zM725.126827 766.603947l-425.813333 0c-0.234667 0-0.426667-0.192-0.426667-0.426667l0-41.736533c0-0.234667 0.192-0.426667 0.426667-0.426667l425.813333 0c0.234667 0 0.426667 0.192 0.426667 0.426667l0 41.736533C725.553493 766.411947 725.361493 766.603947 725.126827 766.603947z" /></svg>