<?xml version="1.0" standalone="no"?><!DOCTYPE svg PUBLIC "-//W3C//DTD SVG 1.1//EN" "http://www.w3.org/Graphics/SVG/1.1/DTD/svg11.dtd"><svg class="icon" width="200px" height="200.00px" viewBox="0 0 1024 1024" version="1.1" xmlns="http://www.w3.org/2000/svg"><path fill="#ffffff" d="M0 512A512.5632 512.5632 0 0 1 512 0a512.6144 512.6144 0 0 1 512 512 512.6144 512.6144 0 0 1-512 512A512.6144 512.6144 0 0 1 0 512z m109.7216 0A402.7392 402.7392 0 0 0 512 914.2784 402.7904 402.7904 0 0 0 914.2784 512 402.7392 402.7392 0 0 0 512 109.7216 402.688 402.688 0 0 0 109.7216 512zM512 853.4016a340.8896 340.8896 0 0 1-266.24-128 340.8384 340.8384 0 0 1 479.0272-53.4528 342.0672 342.0672 0 0 1 53.4528 53.4528 340.3776 340.3776 0 0 1-266.24 128zM341.4528 384.3072A170.496 170.496 0 0 1 512 213.8112 170.496 170.496 0 0 1 682.5472 384 170.5472 170.5472 0 0 1 512 554.5472v0.3072a170.5472 170.5472 0 0 1-170.5472-170.5472z" /></svg>